<svg xmlns="http://www.w3.org/2000/svg" xmlns:xlink="http://www.w3.org/1999/xlink" width="500" zoomAndPan="magnify" viewBox="0 0 375 374.999991" height="500" preserveAspectRatio="xMidYMid meet" version="1.0"><defs><g/><clipPath id="id1"><path d="M 159 120.15625 L 188 120.15625 L 188 243.652344 L 159 243.652344 Z M 159 120.15625 " clip-rule="nonzero"/></clipPath><clipPath id="id2"><path d="M 96.507812 72 L 128 72 L 128 206 L 96.507812 206 Z M 96.507812 72 " clip-rule="nonzero"/></clipPath><clipPath id="id3"><path d="M 159 34.433594 L 188 34.433594 L 188 107 L 159 107 Z M 159 34.433594 " clip-rule="nonzero"/></clipPath><clipPath id="id4"><path d="M 247 72.898438 L 278.433594 72.898438 L 278.433594 205.878906 L 247 205.878906 Z M 247 72.898438 " clip-rule="nonzero"/></clipPath><clipPath id="id5"><path d="M 187.136719 171 L 216 171 L 216 243.652344 L 187.136719 243.652344 Z M 187.136719 171 " clip-rule="nonzero"/></clipPath><clipPath id="id6"><path d="M 187 34.433594 L 216 34.433594 L 216 158 L 187 158 Z M 187 34.433594 " clip-rule="nonzero"/></clipPath></defs><g clip-path="url(#id1)"><path fill="#6b6d76" d="M 162.136719 228.980469 L 187.617188 243.652344 L 187.617188 171.679688 L 159.296875 120.171875 L 159.296875 224.078125 C 159.296875 226.097656 160.378906 227.964844 162.136719 228.980469 " fill-opacity="1" fill-rule="nonzero"/></g><g clip-path="url(#id2)"><path fill="#6b6d76" d="M 127.832031 199.417969 L 127.832031 78.667969 C 127.832031 74.308594 123.105469 71.585938 119.320312 73.761719 L 99.625 85.105469 C 97.871094 86.117188 96.789062 87.984375 96.789062 90.007812 L 96.789062 188.082031 C 96.789062 190.101562 97.871094 191.96875 99.625 192.984375 L 119.320312 204.324219 C 123.105469 206.5 127.832031 203.78125 127.832031 199.417969 " fill-opacity="1" fill-rule="nonzero"/></g><g clip-path="url(#id3)"><path fill="#6b6d76" d="M 187.617188 106.40625 L 187.617188 34.433594 L 161.796875 49.304688 C 160.25 50.195312 159.296875 51.839844 159.296875 53.617188 C 159.296875 54.457031 159.511719 55.277344 159.910156 56.011719 L 187.617188 106.40625 " fill-opacity="1" fill-rule="nonzero"/></g><g clip-path="url(#id4)"><path fill="#fcbfb7" d="M 255.90625 204.324219 L 275.601562 192.984375 C 277.355469 191.96875 278.4375 190.101562 278.4375 188.082031 L 278.4375 90.007812 C 278.4375 87.984375 277.355469 86.117188 275.601562 85.105469 L 255.90625 73.761719 C 252.121094 71.585938 247.390625 74.308594 247.390625 78.667969 L 247.390625 199.417969 C 247.390625 203.78125 252.121094 206.5 255.90625 204.324219 " fill-opacity="1" fill-rule="nonzero"/></g><g clip-path="url(#id5)"><path fill="#fcbfb7" d="M 215.929688 224.472656 C 215.929688 223.628906 215.71875 222.8125 215.316406 222.078125 L 187.617188 171.679688 L 187.617188 243.652344 L 213.433594 228.78125 C 214.980469 227.894531 215.929688 226.25 215.929688 224.472656 " fill-opacity="1" fill-rule="nonzero"/></g><g clip-path="url(#id6)"><path fill="#fcbfb7" d="M 215.929688 157.917969 L 215.929688 54.011719 C 215.929688 51.988281 214.847656 50.121094 213.089844 49.109375 L 187.617188 34.433594 L 187.617188 106.40625 L 215.929688 157.917969 " fill-opacity="1" fill-rule="nonzero"/></g><g fill="#a69888" fill-opacity="1"><g transform="translate(7.395152, 292.866866)"><g><path d="M 30.015625 -30.0625 L 30.015625 0 L 27.390625 0 L 8.078125 -24.390625 L 8.078125 0 L 4.890625 0 L 4.890625 -30.0625 L 7.515625 -30.0625 L 26.875 -5.671875 L 26.875 -30.0625 Z M 30.015625 -30.0625 "/></g></g></g><g fill="#a69888" fill-opacity="1"><g transform="translate(42.303349, 292.866866)"><g><path d="M 4.25 -22.578125 L 7.296875 -22.578125 L 7.296875 0 L 4.25 0 Z M 5.796875 -27.515625 C 5.160156 -27.515625 4.628906 -27.726562 4.203125 -28.15625 C 3.773438 -28.59375 3.5625 -29.113281 3.5625 -29.71875 C 3.5625 -30.289062 3.773438 -30.789062 4.203125 -31.21875 C 4.628906 -31.644531 5.160156 -31.859375 5.796875 -31.859375 C 6.421875 -31.859375 6.945312 -31.648438 7.375 -31.234375 C 7.800781 -30.816406 8.015625 -30.320312 8.015625 -29.75 C 8.015625 -29.125 7.800781 -28.59375 7.375 -28.15625 C 6.945312 -27.726562 6.421875 -27.515625 5.796875 -27.515625 Z M 5.796875 -27.515625 "/></g></g></g><g fill="#a69888" fill-opacity="1"><g transform="translate(53.853538, 292.866866)"><g><path d="M 13.609375 0.21875 C 11.378906 0.21875 9.382812 -0.265625 7.625 -1.234375 C 5.863281 -2.210938 4.476562 -3.582031 3.46875 -5.34375 C 2.46875 -7.101562 1.96875 -9.085938 1.96875 -11.296875 C 1.96875 -13.492188 2.46875 -15.46875 3.46875 -17.21875 C 4.476562 -18.96875 5.863281 -20.328125 7.625 -21.296875 C 9.382812 -22.265625 11.378906 -22.75 13.609375 -22.75 C 15.554688 -22.75 17.296875 -22.367188 18.828125 -21.609375 C 20.359375 -20.859375 21.566406 -19.753906 22.453125 -18.296875 L 20.1875 -16.75 C 19.4375 -17.863281 18.488281 -18.695312 17.34375 -19.25 C 16.195312 -19.8125 14.953125 -20.09375 13.609375 -20.09375 C 11.972656 -20.09375 10.503906 -19.726562 9.203125 -19 C 7.898438 -18.269531 6.882812 -17.234375 6.15625 -15.890625 C 5.425781 -14.546875 5.0625 -13.015625 5.0625 -11.296875 C 5.0625 -9.546875 5.425781 -8.003906 6.15625 -6.671875 C 6.882812 -5.347656 7.898438 -4.316406 9.203125 -3.578125 C 10.503906 -2.847656 11.972656 -2.484375 13.609375 -2.484375 C 14.953125 -2.484375 16.195312 -2.753906 17.34375 -3.296875 C 18.488281 -3.847656 19.4375 -4.679688 20.1875 -5.796875 L 22.453125 -4.25 C 21.566406 -2.789062 20.347656 -1.679688 18.796875 -0.921875 C 17.253906 -0.160156 15.523438 0.21875 13.609375 0.21875 Z M 13.609375 0.21875 "/></g></g></g><g fill="#a69888" fill-opacity="1"><g transform="translate(78.027361, 292.866866)"><g><path d="M 13.484375 0.21875 C 11.304688 0.21875 9.34375 -0.273438 7.59375 -1.265625 C 5.851562 -2.253906 4.476562 -3.617188 3.46875 -5.359375 C 2.46875 -7.109375 1.96875 -9.085938 1.96875 -11.296875 C 1.96875 -13.492188 2.46875 -15.46875 3.46875 -17.21875 C 4.476562 -18.96875 5.851562 -20.328125 7.59375 -21.296875 C 9.34375 -22.265625 11.304688 -22.75 13.484375 -22.75 C 15.660156 -22.75 17.617188 -22.265625 19.359375 -21.296875 C 21.109375 -20.328125 22.476562 -18.96875 23.46875 -17.21875 C 24.457031 -15.46875 24.953125 -13.492188 24.953125 -11.296875 C 24.953125 -9.085938 24.457031 -7.109375 23.46875 -5.359375 C 22.476562 -3.617188 21.109375 -2.253906 19.359375 -1.265625 C 17.617188 -0.273438 15.660156 0.21875 13.484375 0.21875 Z M 13.484375 -2.484375 C 15.085938 -2.484375 16.523438 -2.847656 17.796875 -3.578125 C 19.066406 -4.316406 20.0625 -5.359375 20.78125 -6.703125 C 21.5 -8.046875 21.859375 -9.578125 21.859375 -11.296875 C 21.859375 -13.015625 21.5 -14.546875 20.78125 -15.890625 C 20.0625 -17.234375 19.066406 -18.269531 17.796875 -19 C 16.523438 -19.726562 15.085938 -20.09375 13.484375 -20.09375 C 11.878906 -20.09375 10.4375 -19.726562 9.15625 -19 C 7.882812 -18.269531 6.882812 -17.234375 6.15625 -15.890625 C 5.425781 -14.546875 5.0625 -13.015625 5.0625 -11.296875 C 5.0625 -9.578125 5.425781 -8.046875 6.15625 -6.703125 C 6.882812 -5.359375 7.882812 -4.316406 9.15625 -3.578125 C 10.4375 -2.847656 11.878906 -2.484375 13.484375 -2.484375 Z M 13.484375 -2.484375 "/></g></g></g><g fill="#a69888" fill-opacity="1"><g transform="translate(104.949185, 292.866866)"><g><path d="M 4.25 -31.859375 L 7.296875 -31.859375 L 7.296875 0 L 4.25 0 Z M 4.25 -31.859375 "/></g></g></g><g fill="#a69888" fill-opacity="1"><g transform="translate(116.499374, 292.866866)"><g><path d="M 12.15625 -22.75 C 15.101562 -22.75 17.363281 -22.007812 18.9375 -20.53125 C 20.507812 -19.0625 21.296875 -16.882812 21.296875 -14 L 21.296875 0 L 18.375 0 L 18.375 -3.515625 C 17.6875 -2.347656 16.675781 -1.429688 15.34375 -0.765625 C 14.019531 -0.109375 12.441406 0.21875 10.609375 0.21875 C 8.085938 0.21875 6.082031 -0.378906 4.59375 -1.578125 C 3.101562 -2.785156 2.359375 -4.378906 2.359375 -6.359375 C 2.359375 -8.273438 3.050781 -9.816406 4.4375 -10.984375 C 5.832031 -12.160156 8.046875 -12.75 11.078125 -12.75 L 18.25 -12.75 L 18.25 -14.125 C 18.25 -16.070312 17.703125 -17.550781 16.609375 -18.5625 C 15.523438 -19.582031 13.9375 -20.09375 11.84375 -20.09375 C 10.414062 -20.09375 9.039062 -19.851562 7.71875 -19.375 C 6.40625 -18.90625 5.28125 -18.257812 4.34375 -17.4375 L 2.96875 -19.703125 C 4.113281 -20.679688 5.484375 -21.429688 7.078125 -21.953125 C 8.679688 -22.484375 10.375 -22.75 12.15625 -22.75 Z M 11.078125 -2.1875 C 12.796875 -2.1875 14.269531 -2.578125 15.5 -3.359375 C 16.726562 -4.148438 17.644531 -5.289062 18.25 -6.78125 L 18.25 -10.484375 L 11.15625 -10.484375 C 7.300781 -10.484375 5.375 -9.132812 5.375 -6.4375 C 5.375 -5.125 5.875 -4.085938 6.875 -3.328125 C 7.875 -2.566406 9.273438 -2.1875 11.078125 -2.1875 Z M 11.078125 -2.1875 "/></g></g></g><g fill="#a69888" fill-opacity="1"><g transform="translate(141.832506, 292.866866)"><g><path d="M 10.3125 0.21875 C 8.476562 0.21875 6.722656 -0.046875 5.046875 -0.578125 C 3.367188 -1.109375 2.054688 -1.773438 1.109375 -2.578125 L 2.484375 -4.984375 C 3.429688 -4.234375 4.617188 -3.625 6.046875 -3.15625 C 7.484375 -2.6875 8.972656 -2.453125 10.515625 -2.453125 C 12.578125 -2.453125 14.101562 -2.769531 15.09375 -3.40625 C 16.082031 -4.050781 16.578125 -4.960938 16.578125 -6.140625 C 16.578125 -6.972656 16.300781 -7.625 15.75 -8.09375 C 15.207031 -8.5625 14.519531 -8.914062 13.6875 -9.15625 C 12.863281 -9.40625 11.765625 -9.644531 10.390625 -9.875 C 8.554688 -10.21875 7.082031 -10.566406 5.96875 -10.921875 C 4.851562 -11.285156 3.898438 -11.894531 3.109375 -12.75 C 2.328125 -13.613281 1.9375 -14.800781 1.9375 -16.3125 C 1.9375 -18.207031 2.722656 -19.753906 4.296875 -20.953125 C 5.867188 -22.148438 8.054688 -22.75 10.859375 -22.75 C 12.316406 -22.75 13.773438 -22.554688 15.234375 -22.171875 C 16.703125 -21.785156 17.90625 -21.28125 18.84375 -20.65625 L 17.515625 -18.203125 C 15.660156 -19.492188 13.441406 -20.140625 10.859375 -20.140625 C 8.910156 -20.140625 7.441406 -19.796875 6.453125 -19.109375 C 5.472656 -18.421875 4.984375 -17.519531 4.984375 -16.40625 C 4.984375 -15.539062 5.257812 -14.847656 5.8125 -14.328125 C 6.375 -13.816406 7.066406 -13.441406 7.890625 -13.203125 C 8.722656 -12.960938 9.867188 -12.710938 11.328125 -12.453125 C 13.140625 -12.109375 14.585938 -11.765625 15.671875 -11.421875 C 16.753906 -11.078125 17.679688 -10.488281 18.453125 -9.65625 C 19.234375 -8.832031 19.625 -7.6875 19.625 -6.21875 C 19.625 -4.25 18.800781 -2.679688 17.15625 -1.515625 C 15.507812 -0.359375 13.226562 0.21875 10.3125 0.21875 Z M 10.3125 0.21875 "/></g></g></g><g fill="#a69888" fill-opacity="1"><g transform="translate(162.828946, 292.866866)"><g/></g></g><g fill="#a69888" fill-opacity="1"><g transform="translate(174.078579, 292.866866)"><g><path d="M 23.75 -8.03125 L 7 -8.03125 L 3.390625 0 L 0.078125 0 L 13.828125 -30.0625 L 16.953125 -30.0625 L 30.703125 0 L 27.34375 0 Z M 22.578125 -10.609375 L 15.375 -26.75 L 8.15625 -10.609375 Z M 22.578125 -10.609375 "/></g></g></g><g fill="#a69888" fill-opacity="1"><g transform="translate(204.864775, 292.866866)"><g><path d="M 4.25 -31.859375 L 7.296875 -31.859375 L 7.296875 0 L 4.25 0 Z M 4.25 -31.859375 "/></g></g></g><g fill="#a69888" fill-opacity="1"><g transform="translate(216.414976, 292.866866)"><g><path d="M 12.625 -11.328125 L 7.296875 -6.4375 L 7.296875 0 L 4.25 0 L 4.25 -31.859375 L 7.296875 -31.859375 L 7.296875 -10.265625 L 20.78125 -22.578125 L 24.5625 -22.578125 L 14.90625 -13.359375 L 25.46875 0 L 21.71875 0 Z M 12.625 -11.328125 "/></g></g></g><g fill="#a69888" fill-opacity="1"><g transform="translate(242.220417, 292.866866)"><g><path d="M 15.765625 -22.75 C 18.597656 -22.75 20.847656 -21.925781 22.515625 -20.28125 C 24.191406 -18.632812 25.03125 -16.238281 25.03125 -13.09375 L 25.03125 0 L 21.984375 0 L 21.984375 -12.796875 C 21.984375 -15.140625 21.394531 -16.925781 20.21875 -18.15625 C 19.050781 -19.394531 17.378906 -20.015625 15.203125 -20.015625 C 12.765625 -20.015625 10.835938 -19.289062 9.421875 -17.84375 C 8.003906 -16.394531 7.296875 -14.394531 7.296875 -11.84375 L 7.296875 0 L 4.25 0 L 4.25 -31.859375 L 7.296875 -31.859375 L 7.296875 -18.640625 C 8.128906 -19.953125 9.273438 -20.960938 10.734375 -21.671875 C 12.191406 -22.390625 13.867188 -22.75 15.765625 -22.75 Z M 15.765625 -22.75 "/></g></g></g><g fill="#a69888" fill-opacity="1"><g transform="translate(271.289118, 292.866866)"><g><path d="M 13.484375 0.21875 C 11.304688 0.21875 9.34375 -0.273438 7.59375 -1.265625 C 5.851562 -2.253906 4.476562 -3.617188 3.46875 -5.359375 C 2.46875 -7.109375 1.96875 -9.085938 1.96875 -11.296875 C 1.96875 -13.492188 2.46875 -15.46875 3.46875 -17.21875 C 4.476562 -18.96875 5.851562 -20.328125 7.59375 -21.296875 C 9.34375 -22.265625 11.304688 -22.75 13.484375 -22.75 C 15.660156 -22.75 17.617188 -22.265625 19.359375 -21.296875 C 21.109375 -20.328125 22.476562 -18.96875 23.46875 -17.21875 C 24.457031 -15.46875 24.953125 -13.492188 24.953125 -11.296875 C 24.953125 -9.085938 24.457031 -7.109375 23.46875 -5.359375 C 22.476562 -3.617188 21.109375 -2.253906 19.359375 -1.265625 C 17.617188 -0.273438 15.660156 0.21875 13.484375 0.21875 Z M 13.484375 -2.484375 C 15.085938 -2.484375 16.523438 -2.847656 17.796875 -3.578125 C 19.066406 -4.316406 20.0625 -5.359375 20.78125 -6.703125 C 21.5 -8.046875 21.859375 -9.578125 21.859375 -11.296875 C 21.859375 -13.015625 21.5 -14.546875 20.78125 -15.890625 C 20.0625 -17.234375 19.066406 -18.269531 17.796875 -19 C 16.523438 -19.726562 15.085938 -20.09375 13.484375 -20.09375 C 11.878906 -20.09375 10.4375 -19.726562 9.15625 -19 C 7.882812 -18.269531 6.882812 -17.234375 6.15625 -15.890625 C 5.425781 -14.546875 5.0625 -13.015625 5.0625 -11.296875 C 5.0625 -9.578125 5.425781 -8.046875 6.15625 -6.703125 C 6.882812 -5.359375 7.882812 -4.316406 9.15625 -3.578125 C 10.4375 -2.847656 11.878906 -2.484375 13.484375 -2.484375 Z M 13.484375 -2.484375 "/></g></g></g><g fill="#a69888" fill-opacity="1"><g transform="translate(298.21093, 292.866866)"><g><path d="M 24.609375 -22.578125 L 24.609375 0 L 21.6875 0 L 21.6875 -4.125 C 20.882812 -2.75 19.78125 -1.679688 18.375 -0.921875 C 16.96875 -0.160156 15.363281 0.21875 13.5625 0.21875 C 10.613281 0.21875 8.285156 -0.601562 6.578125 -2.25 C 4.878906 -3.894531 4.03125 -6.304688 4.03125 -9.484375 L 4.03125 -22.578125 L 7.078125 -22.578125 L 7.078125 -9.796875 C 7.078125 -7.410156 7.664062 -5.601562 8.84375 -4.375 C 10.019531 -3.144531 11.695312 -2.53125 13.875 -2.53125 C 16.25 -2.53125 18.117188 -3.253906 19.484375 -4.703125 C 20.859375 -6.148438 21.546875 -8.160156 21.546875 -10.734375 L 21.546875 -22.578125 Z M 24.609375 -22.578125 "/></g></g></g><g fill="#a69888" fill-opacity="1"><g transform="translate(327.107877, 292.866866)"><g><path d="M 7.171875 -18.15625 C 7.890625 -19.675781 8.957031 -20.820312 10.375 -21.59375 C 11.789062 -22.363281 13.539062 -22.75 15.625 -22.75 L 15.625 -19.796875 L 14.90625 -19.84375 C 12.519531 -19.84375 10.65625 -19.109375 9.3125 -17.640625 C 7.96875 -16.179688 7.296875 -14.132812 7.296875 -11.5 L 7.296875 0 L 4.25 0 L 4.25 -22.578125 L 7.171875 -22.578125 Z M 7.171875 -18.15625 "/></g></g></g><g fill="#a69888" fill-opacity="1"><g transform="translate(344.32581, 292.866866)"><g><path d="M 23.234375 -22.578125 L 11.9375 2.703125 C 11.019531 4.816406 9.957031 6.316406 8.75 7.203125 C 7.550781 8.097656 6.109375 8.546875 4.421875 8.546875 C 3.335938 8.546875 2.320312 8.375 1.375 8.03125 C 0.425781 7.6875 -0.390625 7.171875 -1.078125 6.484375 L 0.34375 4.203125 C 1.488281 5.347656 2.863281 5.921875 4.46875 5.921875 C 5.5 5.921875 6.378906 5.632812 7.109375 5.0625 C 7.835938 4.488281 8.515625 3.515625 9.140625 2.140625 L 10.140625 -0.046875 L 0.046875 -22.578125 L 3.21875 -22.578125 L 11.71875 -3.390625 L 20.21875 -22.578125 Z M 23.234375 -22.578125 "/></g></g></g><g fill="#fcbfb7" fill-opacity="1"><g transform="translate(103.157423, 332.160828)"><g><path d="M 23.234375 -15.125 L 18.125 0 L 16.4375 0 L 12.015625 -12.90625 L 7.5625 0 L 5.90625 0 L 0.796875 -15.125 L 2.4375 -15.125 L 6.8125 -2.125 L 11.328125 -15.125 L 12.8125 -15.125 L 17.265625 -2.046875 L 21.703125 -15.125 Z M 23.234375 -15.125 "/></g></g></g><g fill="#fcbfb7" fill-opacity="1"><g transform="translate(127.152443, 332.160828)"><g><path d="M 12.03125 -5.203125 L 2.53125 -5.203125 C 2.613281 -4.023438 3.066406 -3.070312 3.890625 -2.34375 C 4.710938 -1.613281 5.75 -1.25 7 -1.25 C 7.707031 -1.25 8.351562 -1.375 8.9375 -1.625 C 9.53125 -1.882812 10.046875 -2.257812 10.484375 -2.75 L 11.34375 -1.75 C 10.84375 -1.144531 10.210938 -0.679688 9.453125 -0.359375 C 8.691406 -0.046875 7.859375 0.109375 6.953125 0.109375 C 5.785156 0.109375 4.75 -0.140625 3.84375 -0.640625 C 2.945312 -1.140625 2.25 -1.828125 1.75 -2.703125 C 1.25 -3.578125 1 -4.570312 1 -5.6875 C 1 -6.789062 1.238281 -7.78125 1.71875 -8.65625 C 2.195312 -9.539062 2.859375 -10.226562 3.703125 -10.71875 C 4.546875 -11.207031 5.492188 -11.453125 6.546875 -11.453125 C 7.597656 -11.453125 8.539062 -11.207031 9.375 -10.71875 C 10.207031 -10.226562 10.863281 -9.546875 11.34375 -8.671875 C 11.820312 -7.804688 12.0625 -6.8125 12.0625 -5.6875 Z M 6.546875 -10.140625 C 5.453125 -10.140625 4.53125 -9.785156 3.78125 -9.078125 C 3.039062 -8.378906 2.625 -7.472656 2.53125 -6.359375 L 10.59375 -6.359375 C 10.488281 -7.472656 10.066406 -8.378906 9.328125 -9.078125 C 8.585938 -9.785156 7.660156 -10.140625 6.546875 -10.140625 Z M 6.546875 -10.140625 "/></g></g></g><g fill="#fcbfb7" fill-opacity="1"><g transform="translate(140.197448, 332.160828)"><g><path d="M 8 -11.453125 C 9.0625 -11.453125 10.023438 -11.207031 10.890625 -10.71875 C 11.753906 -10.238281 12.429688 -9.5625 12.921875 -8.6875 C 13.410156 -7.8125 13.65625 -6.8125 13.65625 -5.6875 C 13.65625 -4.5625 13.410156 -3.554688 12.921875 -2.671875 C 12.429688 -1.796875 11.753906 -1.113281 10.890625 -0.625 C 10.023438 -0.132812 9.0625 0.109375 8 0.109375 C 7.039062 0.109375 6.179688 -0.09375 5.421875 -0.5 C 4.671875 -0.90625 4.066406 -1.488281 3.609375 -2.25 L 3.609375 0 L 2.140625 0 L 2.140625 -16.03125 L 3.671875 -16.03125 L 3.671875 -9.203125 C 4.148438 -9.941406 4.757812 -10.5 5.5 -10.875 C 6.238281 -11.257812 7.070312 -11.453125 8 -11.453125 Z M 7.890625 -1.25 C 8.679688 -1.25 9.398438 -1.429688 10.046875 -1.796875 C 10.691406 -2.171875 11.195312 -2.695312 11.5625 -3.375 C 11.9375 -4.050781 12.125 -4.820312 12.125 -5.6875 C 12.125 -6.550781 11.9375 -7.320312 11.5625 -8 C 11.195312 -8.675781 10.691406 -9.195312 10.046875 -9.5625 C 9.398438 -9.925781 8.679688 -10.109375 7.890625 -10.109375 C 7.078125 -10.109375 6.347656 -9.925781 5.703125 -9.5625 C 5.066406 -9.195312 4.566406 -8.675781 4.203125 -8 C 3.835938 -7.320312 3.65625 -6.550781 3.65625 -5.6875 C 3.65625 -4.820312 3.835938 -4.050781 4.203125 -3.375 C 4.566406 -2.695312 5.066406 -2.171875 5.703125 -1.796875 C 6.347656 -1.429688 7.078125 -1.25 7.890625 -1.25 Z M 7.890625 -1.25 "/></g></g></g><g fill="#fcbfb7" fill-opacity="1"><g transform="translate(154.840677, 332.160828)"><g/></g></g><g fill="#fcbfb7" fill-opacity="1"><g transform="translate(160.499265, 332.160828)"><g><path d="M 2.46875 -15.125 L 8.625 -15.125 C 10.21875 -15.125 11.625 -14.800781 12.84375 -14.15625 C 14.070312 -13.519531 15.023438 -12.628906 15.703125 -11.484375 C 16.378906 -10.335938 16.71875 -9.03125 16.71875 -7.5625 C 16.71875 -6.09375 16.378906 -4.785156 15.703125 -3.640625 C 15.023438 -2.492188 14.070312 -1.597656 12.84375 -0.953125 C 11.625 -0.316406 10.21875 0 8.625 0 L 2.46875 0 Z M 8.53125 -1.390625 C 9.863281 -1.390625 11.023438 -1.648438 12.015625 -2.171875 C 13.003906 -2.691406 13.769531 -3.414062 14.3125 -4.34375 C 14.863281 -5.28125 15.140625 -6.351562 15.140625 -7.5625 C 15.140625 -8.769531 14.863281 -9.835938 14.3125 -10.765625 C 13.769531 -11.703125 13.003906 -12.429688 12.015625 -12.953125 C 11.023438 -13.484375 9.863281 -13.75 8.53125 -13.75 L 4.0625 -13.75 L 4.0625 -1.390625 Z M 8.53125 -1.390625 "/></g></g></g><g fill="#fcbfb7" fill-opacity="1"><g transform="translate(178.338955, 332.160828)"><g><path d="M 12.03125 -5.203125 L 2.53125 -5.203125 C 2.613281 -4.023438 3.066406 -3.070312 3.890625 -2.34375 C 4.710938 -1.613281 5.75 -1.25 7 -1.25 C 7.707031 -1.25 8.351562 -1.375 8.9375 -1.625 C 9.53125 -1.882812 10.046875 -2.257812 10.484375 -2.75 L 11.34375 -1.75 C 10.84375 -1.144531 10.210938 -0.679688 9.453125 -0.359375 C 8.691406 -0.046875 7.859375 0.109375 6.953125 0.109375 C 5.785156 0.109375 4.75 -0.140625 3.84375 -0.640625 C 2.945312 -1.140625 2.25 -1.828125 1.75 -2.703125 C 1.25 -3.578125 1 -4.570312 1 -5.6875 C 1 -6.789062 1.238281 -7.78125 1.71875 -8.65625 C 2.195312 -9.539062 2.859375 -10.226562 3.703125 -10.71875 C 4.546875 -11.207031 5.492188 -11.453125 6.546875 -11.453125 C 7.597656 -11.453125 8.539062 -11.207031 9.375 -10.71875 C 10.207031 -10.226562 10.863281 -9.546875 11.34375 -8.671875 C 11.820312 -7.804688 12.0625 -6.8125 12.0625 -5.6875 Z M 6.546875 -10.140625 C 5.453125 -10.140625 4.53125 -9.785156 3.78125 -9.078125 C 3.039062 -8.378906 2.625 -7.472656 2.53125 -6.359375 L 10.59375 -6.359375 C 10.488281 -7.472656 10.066406 -8.378906 9.328125 -9.078125 C 8.585938 -9.785156 7.660156 -10.140625 6.546875 -10.140625 Z M 6.546875 -10.140625 "/></g></g></g><g fill="#fcbfb7" fill-opacity="1"><g transform="translate(191.38396, 332.160828)"><g><path d="M 11.6875 -11.359375 L 6.640625 0 L 5.0625 0 L 0.015625 -11.359375 L 1.625 -11.359375 L 5.875 -1.6875 L 10.171875 -11.359375 Z M 11.6875 -11.359375 "/></g></g></g><g fill="#fcbfb7" fill-opacity="1"><g transform="translate(203.089903, 332.160828)"><g><path d="M 12.03125 -5.203125 L 2.53125 -5.203125 C 2.613281 -4.023438 3.066406 -3.070312 3.890625 -2.34375 C 4.710938 -1.613281 5.75 -1.25 7 -1.25 C 7.707031 -1.25 8.351562 -1.375 8.9375 -1.625 C 9.53125 -1.882812 10.046875 -2.257812 10.484375 -2.75 L 11.34375 -1.75 C 10.84375 -1.144531 10.210938 -0.679688 9.453125 -0.359375 C 8.691406 -0.046875 7.859375 0.109375 6.953125 0.109375 C 5.785156 0.109375 4.75 -0.140625 3.84375 -0.640625 C 2.945312 -1.140625 2.25 -1.828125 1.75 -2.703125 C 1.25 -3.578125 1 -4.570312 1 -5.6875 C 1 -6.789062 1.238281 -7.78125 1.71875 -8.65625 C 2.195312 -9.539062 2.859375 -10.226562 3.703125 -10.71875 C 4.546875 -11.207031 5.492188 -11.453125 6.546875 -11.453125 C 7.597656 -11.453125 8.539062 -11.207031 9.375 -10.71875 C 10.207031 -10.226562 10.863281 -9.546875 11.34375 -8.671875 C 11.820312 -7.804688 12.0625 -6.8125 12.0625 -5.6875 Z M 6.546875 -10.140625 C 5.453125 -10.140625 4.53125 -9.785156 3.78125 -9.078125 C 3.039062 -8.378906 2.625 -7.472656 2.53125 -6.359375 L 10.59375 -6.359375 C 10.488281 -7.472656 10.066406 -8.378906 9.328125 -9.078125 C 8.585938 -9.785156 7.660156 -10.140625 6.546875 -10.140625 Z M 6.546875 -10.140625 "/></g></g></g><g fill="#fcbfb7" fill-opacity="1"><g transform="translate(216.134908, 332.160828)"><g><path d="M 2.140625 -16.03125 L 3.671875 -16.03125 L 3.671875 0 L 2.140625 0 Z M 2.140625 -16.03125 "/></g></g></g><g fill="#fcbfb7" fill-opacity="1"><g transform="translate(221.944684, 332.160828)"><g><path d="M 6.78125 0.109375 C 5.6875 0.109375 4.695312 -0.140625 3.8125 -0.640625 C 2.9375 -1.140625 2.25 -1.828125 1.75 -2.703125 C 1.25 -3.578125 1 -4.570312 1 -5.6875 C 1 -6.789062 1.25 -7.78125 1.75 -8.65625 C 2.25 -9.539062 2.9375 -10.226562 3.8125 -10.71875 C 4.695312 -11.207031 5.6875 -11.453125 6.78125 -11.453125 C 7.875 -11.453125 8.859375 -11.207031 9.734375 -10.71875 C 10.617188 -10.226562 11.3125 -9.539062 11.8125 -8.65625 C 12.3125 -7.78125 12.5625 -6.789062 12.5625 -5.6875 C 12.5625 -4.570312 12.3125 -3.578125 11.8125 -2.703125 C 11.3125 -1.828125 10.617188 -1.140625 9.734375 -0.640625 C 8.859375 -0.140625 7.875 0.109375 6.78125 0.109375 Z M 6.78125 -1.25 C 7.59375 -1.25 8.316406 -1.429688 8.953125 -1.796875 C 9.597656 -2.171875 10.097656 -2.695312 10.453125 -3.375 C 10.816406 -4.050781 11 -4.820312 11 -5.6875 C 11 -6.550781 10.816406 -7.320312 10.453125 -8 C 10.097656 -8.675781 9.597656 -9.195312 8.953125 -9.5625 C 8.316406 -9.925781 7.59375 -10.109375 6.78125 -10.109375 C 5.976562 -10.109375 5.253906 -9.925781 4.609375 -9.5625 C 3.972656 -9.195312 3.46875 -8.675781 3.09375 -8 C 2.726562 -7.320312 2.546875 -6.550781 2.546875 -5.6875 C 2.546875 -4.820312 2.726562 -4.050781 3.09375 -3.375 C 3.46875 -2.695312 3.972656 -2.171875 4.609375 -1.796875 C 5.253906 -1.429688 5.976562 -1.25 6.78125 -1.25 Z M 6.78125 -1.25 "/></g></g></g><g fill="#fcbfb7" fill-opacity="1"><g transform="translate(235.486431, 332.160828)"><g><path d="M 8 -11.453125 C 9.0625 -11.453125 10.023438 -11.207031 10.890625 -10.71875 C 11.753906 -10.238281 12.429688 -9.5625 12.921875 -8.6875 C 13.410156 -7.8125 13.65625 -6.8125 13.65625 -5.6875 C 13.65625 -4.539062 13.410156 -3.53125 12.921875 -2.65625 C 12.429688 -1.78125 11.753906 -1.097656 10.890625 -0.609375 C 10.035156 -0.128906 9.070312 0.109375 8 0.109375 C 7.070312 0.109375 6.238281 -0.078125 5.5 -0.453125 C 4.757812 -0.835938 4.148438 -1.398438 3.671875 -2.140625 L 3.671875 4.1875 L 2.140625 4.1875 L 2.140625 -11.359375 L 3.609375 -11.359375 L 3.609375 -9.125 C 4.066406 -9.875 4.671875 -10.445312 5.421875 -10.84375 C 6.179688 -11.25 7.039062 -11.453125 8 -11.453125 Z M 7.890625 -1.25 C 8.679688 -1.25 9.398438 -1.429688 10.046875 -1.796875 C 10.691406 -2.171875 11.195312 -2.695312 11.5625 -3.375 C 11.9375 -4.050781 12.125 -4.820312 12.125 -5.6875 C 12.125 -6.550781 11.9375 -7.316406 11.5625 -7.984375 C 11.195312 -8.648438 10.691406 -9.171875 10.046875 -9.546875 C 9.398438 -9.921875 8.679688 -10.109375 7.890625 -10.109375 C 7.078125 -10.109375 6.347656 -9.921875 5.703125 -9.546875 C 5.066406 -9.171875 4.566406 -8.648438 4.203125 -7.984375 C 3.835938 -7.316406 3.65625 -6.550781 3.65625 -5.6875 C 3.65625 -4.820312 3.835938 -4.050781 4.203125 -3.375 C 4.566406 -2.695312 5.066406 -2.171875 5.703125 -1.796875 C 6.347656 -1.429688 7.078125 -1.25 7.890625 -1.25 Z M 7.890625 -1.25 "/></g></g></g><g fill="#fcbfb7" fill-opacity="1"><g transform="translate(250.12966, 332.160828)"><g><path d="M 12.03125 -5.203125 L 2.53125 -5.203125 C 2.613281 -4.023438 3.066406 -3.070312 3.890625 -2.34375 C 4.710938 -1.613281 5.75 -1.25 7 -1.25 C 7.707031 -1.25 8.351562 -1.375 8.9375 -1.625 C 9.53125 -1.882812 10.046875 -2.257812 10.484375 -2.75 L 11.34375 -1.75 C 10.84375 -1.144531 10.210938 -0.679688 9.453125 -0.359375 C 8.691406 -0.046875 7.859375 0.109375 6.953125 0.109375 C 5.785156 0.109375 4.75 -0.140625 3.84375 -0.640625 C 2.945312 -1.140625 2.25 -1.828125 1.75 -2.703125 C 1.25 -3.578125 1 -4.570312 1 -5.6875 C 1 -6.789062 1.238281 -7.78125 1.71875 -8.65625 C 2.195312 -9.539062 2.859375 -10.226562 3.703125 -10.71875 C 4.546875 -11.207031 5.492188 -11.453125 6.546875 -11.453125 C 7.597656 -11.453125 8.539062 -11.207031 9.375 -10.71875 C 10.207031 -10.226562 10.863281 -9.546875 11.34375 -8.671875 C 11.820312 -7.804688 12.0625 -6.8125 12.0625 -5.6875 Z M 6.546875 -10.140625 C 5.453125 -10.140625 4.53125 -9.785156 3.78125 -9.078125 C 3.039062 -8.378906 2.625 -7.472656 2.53125 -6.359375 L 10.59375 -6.359375 C 10.488281 -7.472656 10.066406 -8.378906 9.328125 -9.078125 C 8.585938 -9.785156 7.660156 -10.140625 6.546875 -10.140625 Z M 6.546875 -10.140625 "/></g></g></g><g fill="#fcbfb7" fill-opacity="1"><g transform="translate(263.174665, 332.160828)"><g><path d="M 3.609375 -9.140625 C 3.972656 -9.898438 4.507812 -10.472656 5.21875 -10.859375 C 5.925781 -11.253906 6.804688 -11.453125 7.859375 -11.453125 L 7.859375 -9.96875 L 7.5 -9.984375 C 6.300781 -9.984375 5.363281 -9.613281 4.6875 -8.875 C 4.007812 -8.144531 3.671875 -7.117188 3.671875 -5.796875 L 3.671875 0 L 2.140625 0 L 2.140625 -11.359375 L 3.609375 -11.359375 Z M 3.609375 -9.140625 "/></g></g></g></svg>