<svg xmlns="http://www.w3.org/2000/svg" xmlns:xlink="http://www.w3.org/1999/xlink" width="500" zoomAndPan="magnify" viewBox="0 0 375 374.999991" height="500" preserveAspectRatio="xMidYMid meet" version="1.0"><defs><g/><clipPath id="id1"><path d="M 167 142.601562 L 188 142.601562 L 188 231.128906 L 167 231.128906 Z M 167 142.601562 " clip-rule="nonzero"/></clipPath><clipPath id="id2"><path d="M 122.34375 108 L 145 108 L 145 204 L 122.34375 204 Z M 122.34375 108 " clip-rule="nonzero"/></clipPath><clipPath id="id3"><path d="M 167 81.152344 L 188 81.152344 L 188 133 L 167 133 Z M 167 81.152344 " clip-rule="nonzero"/></clipPath><clipPath id="id4"><path d="M 230 108.726562 L 252.609375 108.726562 L 252.609375 204 L 230 204 Z M 230 108.726562 " clip-rule="nonzero"/></clipPath><clipPath id="id5"><path d="M 187.238281 179 L 208 179 L 208 231.128906 L 187.238281 231.128906 Z M 187.238281 179 " clip-rule="nonzero"/></clipPath><clipPath id="id6"><path d="M 187 81.152344 L 208 81.152344 L 208 170 L 187 170 Z M 187 81.152344 " clip-rule="nonzero"/></clipPath></defs><g clip-path="url(#id1)"><path fill="#1a1a1a" d="M 169.335938 220.609375 L 187.582031 231.128906 L 187.582031 179.535156 L 167.300781 142.609375 L 167.300781 217.09375 C 167.300781 218.542969 168.078125 219.882812 169.335938 220.609375 " fill-opacity="1" fill-rule="nonzero"/></g><g clip-path="url(#id2)"><path fill="#1a1a1a" d="M 144.773438 199.417969 L 144.773438 112.859375 C 144.773438 109.734375 141.386719 107.78125 138.679688 109.34375 L 124.574219 117.472656 C 123.320312 118.199219 122.546875 119.539062 122.546875 120.988281 L 122.546875 191.292969 C 122.546875 192.742188 123.320312 194.078125 124.574219 194.804688 L 138.679688 202.9375 C 141.386719 204.496094 144.773438 202.546875 144.773438 199.417969 " fill-opacity="1" fill-rule="nonzero"/></g><g clip-path="url(#id3)"><path fill="#1a1a1a" d="M 187.582031 132.742188 L 187.582031 81.152344 L 169.09375 91.8125 C 167.988281 92.449219 167.300781 93.625 167.300781 94.902344 C 167.300781 95.503906 167.457031 96.09375 167.742188 96.617188 L 187.582031 132.742188 " fill-opacity="1" fill-rule="nonzero"/></g><g clip-path="url(#id4)"><path fill="#f46530" d="M 236.480469 202.9375 L 250.582031 194.804688 C 251.839844 194.078125 252.613281 192.742188 252.613281 191.292969 L 252.613281 120.988281 C 252.613281 119.539062 251.839844 118.199219 250.582031 117.472656 L 236.480469 109.34375 C 233.769531 107.78125 230.382812 109.734375 230.382812 112.859375 L 230.382812 199.417969 C 230.382812 202.546875 233.769531 204.496094 236.480469 202.9375 " fill-opacity="1" fill-rule="nonzero"/></g><g clip-path="url(#id5)"><path fill="#f46530" d="M 207.855469 217.378906 C 207.855469 216.773438 207.707031 216.1875 207.414062 215.660156 L 187.582031 179.535156 L 187.582031 231.128906 L 206.070312 220.46875 C 207.175781 219.832031 207.855469 218.652344 207.855469 217.378906 " fill-opacity="1" fill-rule="nonzero"/></g><g clip-path="url(#id6)"><path fill="#f46530" d="M 207.855469 169.667969 L 207.855469 95.183594 C 207.855469 93.734375 207.078125 92.394531 205.820312 91.667969 L 187.582031 81.152344 L 187.582031 132.742188 L 207.855469 169.667969 " fill-opacity="1" fill-rule="nonzero"/></g><g fill="#2a2e30" fill-opacity="1"><g transform="translate(41.31686, 267.36506)"><g><path d="M 2.828125 0 C 2.421875 0 2.21875 -0.203125 2.21875 -0.609375 L 2.21875 -24.765625 C 2.21875 -25.171875 2.421875 -25.375 2.828125 -25.375 L 6.5625 -25.375 C 6.875 -25.375 7.113281 -25.238281 7.28125 -24.96875 L 16.34375 -9.890625 C 16.394531 -9.796875 16.453125 -9.757812 16.515625 -9.78125 C 16.578125 -9.8125 16.609375 -9.875 16.609375 -9.96875 L 16.609375 -24.765625 C 16.609375 -25.171875 16.8125 -25.375 17.21875 -25.375 L 21.03125 -25.375 C 21.4375 -25.375 21.640625 -25.171875 21.640625 -24.765625 L 21.640625 -0.609375 C 21.640625 -0.203125 21.4375 0 21.03125 0 L 17.328125 0 C 17.035156 0 16.796875 -0.144531 16.609375 -0.4375 L 7.5 -15.65625 C 7.457031 -15.757812 7.40625 -15.796875 7.34375 -15.765625 C 7.28125 -15.742188 7.25 -15.6875 7.25 -15.59375 L 7.28125 -0.609375 C 7.28125 -0.203125 7.078125 0 6.671875 0 Z M 2.828125 0 "/></g></g></g><g fill="#2a2e30" fill-opacity="1"><g transform="translate(66.578198, 267.36506)"><g><path d="M 4.71875 -20.40625 C 3.789062 -20.40625 3.035156 -20.6875 2.453125 -21.25 C 1.878906 -21.820312 1.59375 -22.554688 1.59375 -23.453125 C 1.59375 -24.347656 1.878906 -25.078125 2.453125 -25.640625 C 3.035156 -26.210938 3.789062 -26.5 4.71875 -26.5 C 5.65625 -26.5 6.40625 -26.21875 6.96875 -25.65625 C 7.539062 -25.101562 7.828125 -24.367188 7.828125 -23.453125 C 7.828125 -22.535156 7.539062 -21.796875 6.96875 -21.234375 C 6.40625 -20.679688 5.65625 -20.40625 4.71875 -20.40625 Z M 2.796875 0 C 2.378906 0 2.171875 -0.203125 2.171875 -0.609375 L 2.171875 -18.015625 C 2.171875 -18.421875 2.378906 -18.625 2.796875 -18.625 L 6.671875 -18.625 C 7.078125 -18.625 7.28125 -18.421875 7.28125 -18.015625 L 7.28125 -0.609375 C 7.28125 -0.203125 7.078125 0 6.671875 0 Z M 2.796875 0 "/></g></g></g><g fill="#2a2e30" fill-opacity="1"><g transform="translate(77.414893, 267.36506)"><g><path d="M 10.078125 0.296875 C 8.140625 0.296875 6.460938 -0.1875 5.046875 -1.15625 C 3.640625 -2.125 2.632812 -3.453125 2.03125 -5.140625 C 1.613281 -6.347656 1.40625 -7.773438 1.40625 -9.421875 C 1.40625 -11.046875 1.613281 -12.445312 2.03125 -13.625 C 2.613281 -15.269531 3.613281 -16.5625 5.03125 -17.5 C 6.457031 -18.445312 8.140625 -18.921875 10.078125 -18.921875 C 12.015625 -18.921875 13.710938 -18.4375 15.171875 -17.46875 C 16.628906 -16.5 17.601562 -15.28125 18.09375 -13.8125 C 18.238281 -13.46875 18.332031 -13.09375 18.375 -12.6875 L 18.375 -12.609375 C 18.375 -12.296875 18.191406 -12.101562 17.828125 -12.03125 L 14.03125 -11.453125 L 13.84375 -11.421875 C 13.550781 -11.421875 13.382812 -11.566406 13.34375 -11.859375 L 13.234375 -12.359375 C 13.066406 -12.984375 12.691406 -13.5 12.109375 -13.90625 C 11.523438 -14.320312 10.835938 -14.53125 10.046875 -14.53125 C 9.265625 -14.53125 8.609375 -14.335938 8.078125 -13.953125 C 7.546875 -13.566406 7.171875 -13.035156 6.953125 -12.359375 C 6.691406 -11.640625 6.5625 -10.648438 6.5625 -9.390625 C 6.5625 -8.128906 6.679688 -7.140625 6.921875 -6.421875 C 7.140625 -5.691406 7.519531 -5.117188 8.0625 -4.703125 C 8.601562 -4.296875 9.265625 -4.09375 10.046875 -4.09375 C 10.796875 -4.09375 11.453125 -4.289062 12.015625 -4.6875 C 12.585938 -5.09375 12.976562 -5.632812 13.1875 -6.3125 L 13.234375 -6.484375 C 13.253906 -6.585938 13.335938 -6.703125 13.484375 -6.828125 C 13.628906 -6.960938 13.785156 -7.019531 13.953125 -7 L 17.765625 -6.421875 C 17.953125 -6.367188 18.085938 -6.28125 18.171875 -6.15625 C 18.265625 -6.039062 18.296875 -5.898438 18.265625 -5.734375 C 18.222656 -5.335938 18.164062 -5.054688 18.09375 -4.890625 C 17.582031 -3.273438 16.59375 -2.003906 15.125 -1.078125 C 13.664062 -0.160156 11.984375 0.296875 10.078125 0.296875 Z M 10.078125 0.296875 "/></g></g></g><g fill="#2a2e30" fill-opacity="1"><g transform="translate(98.290853, 267.36506)"><g><path d="M 10.15625 0.296875 C 8.09375 0.296875 6.335938 -0.234375 4.890625 -1.296875 C 3.441406 -2.367188 2.453125 -3.820312 1.921875 -5.65625 C 1.578125 -6.789062 1.40625 -8.023438 1.40625 -9.359375 C 1.40625 -10.828125 1.585938 -12.101562 1.953125 -13.1875 C 2.515625 -14.976562 3.515625 -16.378906 4.953125 -17.390625 C 6.390625 -18.410156 8.132812 -18.921875 10.1875 -18.921875 C 12.164062 -18.921875 13.863281 -18.410156 15.28125 -17.390625 C 16.695312 -16.378906 17.679688 -14.992188 18.234375 -13.234375 C 18.597656 -12.117188 18.78125 -10.847656 18.78125 -9.421875 C 18.78125 -8.171875 18.625 -6.953125 18.3125 -5.765625 C 17.75 -3.878906 16.75 -2.394531 15.3125 -1.3125 C 13.875 -0.238281 12.15625 0.296875 10.15625 0.296875 Z M 10.15625 -4.09375 C 10.925781 -4.09375 11.585938 -4.332031 12.140625 -4.8125 C 12.703125 -5.300781 13.101562 -5.96875 13.34375 -6.8125 C 13.53125 -7.46875 13.625 -8.316406 13.625 -9.359375 C 13.625 -10.367188 13.53125 -11.222656 13.34375 -11.921875 C 13.101562 -12.742188 12.703125 -13.382812 12.140625 -13.84375 C 11.585938 -14.300781 10.898438 -14.53125 10.078125 -14.53125 C 9.273438 -14.53125 8.597656 -14.300781 8.046875 -13.84375 C 7.492188 -13.382812 7.09375 -12.742188 6.84375 -11.921875 C 6.65625 -11.222656 6.5625 -10.367188 6.5625 -9.359375 C 6.5625 -8.359375 6.65625 -7.507812 6.84375 -6.8125 C 7.09375 -5.96875 7.5 -5.300781 8.0625 -4.8125 C 8.632812 -4.332031 9.332031 -4.09375 10.15625 -4.09375 Z M 10.15625 -4.09375 "/></g></g></g><g fill="#2a2e30" fill-opacity="1"><g transform="translate(119.891665, 267.36506)"><g><path d="M 2.578125 0 C 2.160156 0 1.953125 -0.203125 1.953125 -0.609375 L 1.953125 -24.765625 C 1.953125 -25.171875 2.160156 -25.375 2.578125 -25.375 L 6.453125 -25.375 C 6.859375 -25.375 7.0625 -25.171875 7.0625 -24.765625 L 7.0625 -0.609375 C 7.0625 -0.203125 6.859375 0 6.453125 0 Z M 2.578125 0 "/></g></g></g><g fill="#2a2e30" fill-opacity="1"><g transform="translate(130.329689, 267.36506)"><g><path d="M 9.359375 -18.921875 C 10.921875 -18.921875 12.316406 -18.648438 13.546875 -18.109375 C 14.785156 -17.566406 15.75 -16.820312 16.4375 -15.875 C 17.125 -14.9375 17.46875 -13.882812 17.46875 -12.71875 L 17.46875 -0.609375 C 17.46875 -0.203125 17.265625 0 16.859375 0 L 12.984375 0 C 12.566406 0 12.359375 -0.203125 12.359375 -0.609375 L 12.359375 -1.484375 C 12.359375 -1.578125 12.332031 -1.628906 12.28125 -1.640625 C 12.238281 -1.660156 12.179688 -1.632812 12.109375 -1.5625 C 10.992188 -0.320312 9.335938 0.296875 7.140625 0.296875 C 5.273438 0.296875 3.773438 -0.160156 2.640625 -1.078125 C 1.503906 -2.003906 0.9375 -3.359375 0.9375 -5.140625 C 0.9375 -7.003906 1.585938 -8.445312 2.890625 -9.46875 C 4.203125 -10.5 6.066406 -11.015625 8.484375 -11.015625 L 12.140625 -11.015625 C 12.285156 -11.015625 12.359375 -11.085938 12.359375 -11.234375 L 12.359375 -12 C 12.359375 -12.789062 12.109375 -13.410156 11.609375 -13.859375 C 11.117188 -14.304688 10.40625 -14.53125 9.46875 -14.53125 C 8.738281 -14.53125 8.132812 -14.410156 7.65625 -14.171875 C 7.1875 -13.929688 6.867188 -13.59375 6.703125 -13.15625 C 6.554688 -12.820312 6.316406 -12.664062 5.984375 -12.6875 L 1.953125 -13.1875 C 1.765625 -13.21875 1.613281 -13.273438 1.5 -13.359375 C 1.394531 -13.441406 1.351562 -13.554688 1.375 -13.703125 C 1.5 -14.691406 1.914062 -15.582031 2.625 -16.375 C 3.34375 -17.175781 4.285156 -17.800781 5.453125 -18.25 C 6.628906 -18.695312 7.929688 -18.921875 9.359375 -18.921875 Z M 8.625 -3.515625 C 9.664062 -3.515625 10.546875 -3.789062 11.265625 -4.34375 C 11.992188 -4.90625 12.359375 -5.617188 12.359375 -6.484375 L 12.359375 -7.75 C 12.359375 -7.894531 12.285156 -7.96875 12.140625 -7.96875 L 9.5625 -7.96875 C 8.476562 -7.96875 7.617188 -7.765625 6.984375 -7.359375 C 6.359375 -6.953125 6.046875 -6.375 6.046875 -5.625 C 6.046875 -4.96875 6.28125 -4.453125 6.75 -4.078125 C 7.226562 -3.703125 7.851562 -3.515625 8.625 -3.515625 Z M 8.625 -3.515625 "/></g></g></g><g fill="#2a2e30" fill-opacity="1"><g transform="translate(150.879468, 267.36506)"><g><path d="M 9.3125 0.25 C 7.695312 0.25 6.285156 0.0195312 5.078125 -0.4375 C 3.867188 -0.894531 2.9375 -1.535156 2.28125 -2.359375 C 1.632812 -3.179688 1.3125 -4.109375 1.3125 -5.140625 L 1.3125 -5.328125 C 1.3125 -5.734375 1.515625 -5.9375 1.921875 -5.9375 L 5.578125 -5.9375 C 5.992188 -5.9375 6.203125 -5.867188 6.203125 -5.734375 L 6.203125 -5.46875 C 6.203125 -4.9375 6.488281 -4.484375 7.0625 -4.109375 C 7.644531 -3.734375 8.382812 -3.546875 9.28125 -3.546875 C 10.101562 -3.546875 10.765625 -3.703125 11.265625 -4.015625 C 11.773438 -4.335938 12.03125 -4.75 12.03125 -5.25 C 12.03125 -5.6875 11.8125 -6.015625 11.375 -6.234375 C 10.945312 -6.453125 10.238281 -6.679688 9.25 -6.921875 C 8.0625 -7.234375 7.175781 -7.507812 6.59375 -7.75 C 5.019531 -8.289062 3.773438 -8.945312 2.859375 -9.71875 C 1.941406 -10.488281 1.484375 -11.597656 1.484375 -13.046875 C 1.484375 -14.835938 2.179688 -16.257812 3.578125 -17.3125 C 4.984375 -18.363281 6.820312 -18.890625 9.09375 -18.890625 C 10.644531 -18.890625 12.003906 -18.640625 13.171875 -18.140625 C 14.347656 -17.648438 15.253906 -16.957031 15.890625 -16.0625 C 16.535156 -15.164062 16.859375 -14.148438 16.859375 -13.015625 C 16.859375 -12.890625 16.800781 -12.785156 16.6875 -12.703125 C 16.582031 -12.617188 16.429688 -12.578125 16.234375 -12.578125 L 12.6875 -12.578125 C 12.28125 -12.578125 12.078125 -12.648438 12.078125 -12.796875 L 12.078125 -13.015625 C 12.078125 -13.546875 11.804688 -13.992188 11.265625 -14.359375 C 10.734375 -14.722656 10.023438 -14.90625 9.140625 -14.90625 C 8.335938 -14.90625 7.675781 -14.757812 7.15625 -14.46875 C 6.632812 -14.175781 6.375 -13.773438 6.375 -13.265625 C 6.375 -12.785156 6.617188 -12.421875 7.109375 -12.171875 C 7.609375 -11.929688 8.425781 -11.679688 9.5625 -11.421875 C 10.269531 -11.273438 10.945312 -11.09375 11.59375 -10.875 C 13.332031 -10.363281 14.695312 -9.707031 15.6875 -8.90625 C 16.6875 -8.113281 17.1875 -6.957031 17.1875 -5.4375 C 17.1875 -3.644531 16.472656 -2.25 15.046875 -1.25 C 13.617188 -0.25 11.707031 0.25 9.3125 0.25 Z M 9.3125 0.25 "/></g></g></g><g fill="#2a2e30" fill-opacity="1"><g transform="translate(170.523165, 267.36506)"><g/></g></g><g fill="#2a2e30" fill-opacity="1"><g transform="translate(179.185286, 267.36506)"><g><path d="M 18.53125 0 C 18.1875 0 17.953125 -0.164062 17.828125 -0.5 L 16.8125 -3.875 C 16.789062 -4 16.722656 -4.0625 16.609375 -4.0625 L 7.71875 -4.0625 C 7.601562 -4.0625 7.53125 -4 7.5 -3.875 L 6.484375 -0.5 C 6.367188 -0.164062 6.140625 0 5.796875 0 L 1.59375 0 C 1.375 0 1.21875 -0.0664062 1.125 -0.203125 C 1.03125 -0.335938 1.019531 -0.5 1.09375 -0.6875 L 8.8125 -24.875 C 8.925781 -25.207031 9.15625 -25.375 9.5 -25.375 L 14.828125 -25.375 C 15.160156 -25.375 15.390625 -25.207031 15.515625 -24.875 L 23.234375 -0.6875 C 23.253906 -0.632812 23.265625 -0.5625 23.265625 -0.46875 C 23.265625 -0.320312 23.21875 -0.207031 23.125 -0.125 C 23.03125 -0.0390625 22.898438 0 22.734375 0 Z M 8.765625 -8.265625 C 8.742188 -8.097656 8.804688 -8.015625 8.953125 -8.015625 L 15.375 -8.015625 C 15.519531 -8.015625 15.578125 -8.097656 15.546875 -8.265625 L 12.28125 -19.328125 C 12.257812 -19.421875 12.21875 -19.46875 12.15625 -19.46875 C 12.101562 -19.46875 12.050781 -19.421875 12 -19.328125 Z M 8.765625 -8.265625 "/></g></g></g><g fill="#2a2e30" fill-opacity="1"><g transform="translate(204.917783, 267.36506)"><g><path d="M 2.578125 0 C 2.160156 0 1.953125 -0.203125 1.953125 -0.609375 L 1.953125 -24.765625 C 1.953125 -25.171875 2.160156 -25.375 2.578125 -25.375 L 6.453125 -25.375 C 6.859375 -25.375 7.0625 -25.171875 7.0625 -24.765625 L 7.0625 -0.609375 C 7.0625 -0.203125 6.859375 0 6.453125 0 Z M 2.578125 0 "/></g></g></g><g fill="#2a2e30" fill-opacity="1"><g transform="translate(215.355808, 267.36506)"><g><path d="M 2.5 0 C 2.09375 0 1.890625 -0.203125 1.890625 -0.609375 L 1.890625 -24.765625 C 1.890625 -25.171875 2.09375 -25.375 2.5 -25.375 L 6.375 -25.375 C 6.789062 -25.375 7 -25.171875 7 -24.765625 L 7 -12.796875 C 7 -12.703125 7.023438 -12.644531 7.078125 -12.625 C 7.140625 -12.613281 7.195312 -12.644531 7.25 -12.71875 L 12.078125 -18.265625 C 12.316406 -18.503906 12.566406 -18.625 12.828125 -18.625 L 17.21875 -18.625 C 17.382812 -18.625 17.515625 -18.59375 17.609375 -18.53125 C 17.710938 -18.476562 17.765625 -18.390625 17.765625 -18.265625 C 17.765625 -18.117188 17.71875 -17.988281 17.625 -17.875 L 13.15625 -12.28125 C 13.082031 -12.21875 13.070312 -12.125 13.125 -12 L 18.453125 -0.71875 L 18.53125 -0.4375 C 18.53125 -0.144531 18.347656 0 17.984375 0 L 13.890625 0 C 13.546875 0 13.300781 -0.15625 13.15625 -0.46875 L 9.640625 -8.765625 C 9.566406 -8.910156 9.472656 -8.925781 9.359375 -8.8125 L 7.109375 -5.9375 C 7.035156 -5.84375 7 -5.757812 7 -5.6875 L 7 -0.609375 C 7 -0.203125 6.789062 0 6.375 0 Z M 2.5 0 "/></g></g></g><g fill="#2a2e30" fill-opacity="1"><g transform="translate(236.086794, 267.36506)"><g><path d="M 11.59375 -18.921875 C 13.53125 -18.921875 15.085938 -18.328125 16.265625 -17.140625 C 17.453125 -15.960938 18.046875 -14.359375 18.046875 -12.328125 L 18.046875 -0.609375 C 18.046875 -0.203125 17.84375 0 17.4375 0 L 13.5625 0 C 13.144531 0 12.9375 -0.203125 12.9375 -0.609375 L 12.9375 -11.28125 C 12.9375 -12.238281 12.671875 -13.019531 12.140625 -13.625 C 11.609375 -14.226562 10.894531 -14.53125 10 -14.53125 C 9.101562 -14.53125 8.378906 -14.226562 7.828125 -13.625 C 7.273438 -13.019531 7 -12.238281 7 -11.28125 L 7 -0.609375 C 7 -0.203125 6.789062 0 6.375 0 L 2.5 0 C 2.09375 0 1.890625 -0.203125 1.890625 -0.609375 L 1.890625 -24.765625 C 1.890625 -25.171875 2.09375 -25.375 2.5 -25.375 L 6.375 -25.375 C 6.789062 -25.375 7 -25.171875 7 -24.765625 L 7 -17 C 7 -16.90625 7.019531 -16.84375 7.0625 -16.8125 C 7.113281 -16.789062 7.164062 -16.816406 7.21875 -16.890625 C 8.207031 -18.242188 9.664062 -18.921875 11.59375 -18.921875 Z M 11.59375 -18.921875 "/></g></g></g><g fill="#2a2e30" fill-opacity="1"><g transform="translate(257.325173, 267.36506)"><g><path d="M 10.15625 0.296875 C 8.09375 0.296875 6.335938 -0.234375 4.890625 -1.296875 C 3.441406 -2.367188 2.453125 -3.820312 1.921875 -5.65625 C 1.578125 -6.789062 1.40625 -8.023438 1.40625 -9.359375 C 1.40625 -10.828125 1.585938 -12.101562 1.953125 -13.1875 C 2.515625 -14.976562 3.515625 -16.378906 4.953125 -17.390625 C 6.390625 -18.410156 8.132812 -18.921875 10.1875 -18.921875 C 12.164062 -18.921875 13.863281 -18.410156 15.28125 -17.390625 C 16.695312 -16.378906 17.679688 -14.992188 18.234375 -13.234375 C 18.597656 -12.117188 18.78125 -10.847656 18.78125 -9.421875 C 18.78125 -8.171875 18.625 -6.953125 18.3125 -5.765625 C 17.75 -3.878906 16.75 -2.394531 15.3125 -1.3125 C 13.875 -0.238281 12.15625 0.296875 10.15625 0.296875 Z M 10.15625 -4.09375 C 10.925781 -4.09375 11.585938 -4.332031 12.140625 -4.8125 C 12.703125 -5.300781 13.101562 -5.96875 13.34375 -6.8125 C 13.53125 -7.46875 13.625 -8.316406 13.625 -9.359375 C 13.625 -10.367188 13.53125 -11.222656 13.34375 -11.921875 C 13.101562 -12.742188 12.703125 -13.382812 12.140625 -13.84375 C 11.585938 -14.300781 10.898438 -14.53125 10.078125 -14.53125 C 9.273438 -14.53125 8.597656 -14.300781 8.046875 -13.84375 C 7.492188 -13.382812 7.09375 -12.742188 6.84375 -11.921875 C 6.65625 -11.222656 6.5625 -10.367188 6.5625 -9.359375 C 6.5625 -8.359375 6.65625 -7.507812 6.84375 -6.8125 C 7.09375 -5.96875 7.5 -5.300781 8.0625 -4.8125 C 8.632812 -4.332031 9.332031 -4.09375 10.15625 -4.09375 Z M 10.15625 -4.09375 "/></g></g></g><g fill="#2a2e30" fill-opacity="1"><g transform="translate(278.925981, 267.36506)"><g><path d="M 12.765625 -18.015625 C 12.765625 -18.421875 12.96875 -18.625 13.375 -18.625 L 17.25 -18.625 C 17.664062 -18.625 17.875 -18.421875 17.875 -18.015625 L 17.875 -0.609375 C 17.875 -0.203125 17.664062 0 17.25 0 L 13.375 0 C 12.96875 0 12.765625 -0.203125 12.765625 -0.609375 L 12.765625 -1.59375 C 12.765625 -1.6875 12.734375 -1.738281 12.671875 -1.75 C 12.609375 -1.769531 12.550781 -1.742188 12.5 -1.671875 C 11.5625 -0.390625 10.078125 0.25 8.046875 0.25 C 6.210938 0.25 4.703125 -0.300781 3.515625 -1.40625 C 2.328125 -2.519531 1.734375 -4.082031 1.734375 -6.09375 L 1.734375 -18.015625 C 1.734375 -18.421875 1.941406 -18.625 2.359375 -18.625 L 6.203125 -18.625 C 6.609375 -18.625 6.8125 -18.421875 6.8125 -18.015625 L 6.8125 -7.359375 C 6.8125 -6.390625 7.070312 -5.601562 7.59375 -5 C 8.113281 -4.394531 8.832031 -4.09375 9.75 -4.09375 C 10.570312 -4.09375 11.25 -4.335938 11.78125 -4.828125 C 12.3125 -5.328125 12.640625 -5.976562 12.765625 -6.78125 Z M 12.765625 -18.015625 "/></g></g></g><g fill="#2a2e30" fill-opacity="1"><g transform="translate(300.091886, 267.36506)"><g><path d="M 11.171875 -18.890625 C 11.941406 -18.890625 12.582031 -18.742188 13.09375 -18.453125 C 13.375 -18.304688 13.476562 -18.050781 13.40625 -17.6875 L 12.71875 -13.890625 C 12.695312 -13.671875 12.628906 -13.535156 12.515625 -13.484375 C 12.410156 -13.429688 12.238281 -13.429688 12 -13.484375 C 11.613281 -13.578125 11.265625 -13.625 10.953125 -13.625 C 10.773438 -13.625 10.492188 -13.601562 10.109375 -13.5625 C 9.242188 -13.488281 8.507812 -13.164062 7.90625 -12.59375 C 7.300781 -12.03125 7 -11.273438 7 -10.328125 L 7 -0.609375 C 7 -0.203125 6.789062 0 6.375 0 L 2.5 0 C 2.09375 0 1.890625 -0.203125 1.890625 -0.609375 L 1.890625 -18.015625 C 1.890625 -18.421875 2.09375 -18.625 2.5 -18.625 L 6.375 -18.625 C 6.789062 -18.625 7 -18.421875 7 -18.015625 L 7 -16.890625 C 7 -16.796875 7.019531 -16.734375 7.0625 -16.703125 C 7.113281 -16.679688 7.175781 -16.707031 7.25 -16.78125 C 8.21875 -18.1875 9.523438 -18.890625 11.171875 -18.890625 Z M 11.171875 -18.890625 "/></g></g></g><g fill="#2a2e30" fill-opacity="1"><g transform="translate(315.386443, 267.36506)"><g><path d="M 1.78125 7.21875 C 1.601562 7.21875 1.515625 7.007812 1.515625 6.59375 L 1.515625 3.625 C 1.515625 3.21875 1.585938 3.015625 1.734375 3.015625 L 1.953125 3.015625 C 3.453125 3.015625 4.519531 2.828125 5.15625 2.453125 C 5.800781 2.078125 6.269531 1.304688 6.5625 0.140625 C 6.613281 0.0234375 6.613281 -0.0664062 6.5625 -0.140625 L 0.71875 -17.9375 C 0.695312 -17.988281 0.6875 -18.0625 0.6875 -18.15625 C 0.6875 -18.300781 0.734375 -18.414062 0.828125 -18.5 C 0.929688 -18.582031 1.066406 -18.625 1.234375 -18.625 L 5.40625 -18.625 C 5.738281 -18.625 5.96875 -18.457031 6.09375 -18.125 L 9.0625 -7.328125 C 9.082031 -7.222656 9.128906 -7.171875 9.203125 -7.171875 C 9.273438 -7.171875 9.328125 -7.222656 9.359375 -7.328125 L 12.1875 -18.09375 C 12.25 -18.445312 12.476562 -18.625 12.875 -18.625 L 17.03125 -18.625 C 17.25 -18.625 17.40625 -18.554688 17.5 -18.421875 C 17.601562 -18.296875 17.617188 -18.132812 17.546875 -17.9375 L 11.34375 0.6875 C 10.738281 2.445312 10.125 3.769531 9.5 4.65625 C 8.875 5.539062 7.988281 6.1875 6.84375 6.59375 C 5.707031 7.007812 4.101562 7.21875 2.03125 7.21875 Z M 1.78125 7.21875 "/></g></g></g><g fill="#f46530" fill-opacity="1"><g transform="translate(133.563857, 290.393984)"><g><path d="M 3.578125 0 C 3.410156 0 3.3125 -0.078125 3.28125 -0.234375 L 0.359375 -11.078125 C 0.347656 -11.097656 0.34375 -11.125 0.34375 -11.15625 C 0.34375 -11.226562 0.363281 -11.28125 0.40625 -11.3125 C 0.445312 -11.351562 0.503906 -11.375 0.578125 -11.375 L 2.046875 -11.375 C 2.203125 -11.375 2.296875 -11.296875 2.328125 -11.140625 L 4.15625 -3.828125 C 4.164062 -3.785156 4.1875 -3.765625 4.21875 -3.765625 C 4.257812 -3.765625 4.285156 -3.785156 4.296875 -3.828125 L 6.03125 -11.140625 C 6.0625 -11.296875 6.15625 -11.375 6.3125 -11.375 L 7.765625 -11.375 C 7.929688 -11.375 8.03125 -11.296875 8.0625 -11.140625 L 9.90625 -3.828125 C 9.914062 -3.785156 9.9375 -3.765625 9.96875 -3.765625 C 10.007812 -3.765625 10.035156 -3.785156 10.046875 -3.828125 L 11.84375 -11.140625 C 11.875 -11.296875 11.96875 -11.375 12.125 -11.375 L 13.515625 -11.375 C 13.609375 -11.375 13.671875 -11.347656 13.703125 -11.296875 C 13.742188 -11.242188 13.753906 -11.171875 13.734375 -11.078125 L 10.96875 -0.234375 C 10.9375 -0.078125 10.835938 0 10.671875 0 L 9.265625 0 C 9.109375 0 9.015625 -0.078125 8.984375 -0.234375 L 7.09375 -7.875 C 7.082031 -7.925781 7.0625 -7.953125 7.03125 -7.953125 C 7 -7.953125 6.976562 -7.925781 6.96875 -7.875 L 5.171875 -0.234375 C 5.140625 -0.078125 5.046875 0 4.890625 0 Z M 3.578125 0 "/></g></g></g><g fill="#f46530" fill-opacity="1"><g transform="translate(147.649699, 290.393984)"><g><path d="M 4.734375 -1.46875 C 5.128906 -1.476562 5.472656 -1.5625 5.765625 -1.71875 C 6.066406 -1.875 6.3125 -2.085938 6.5 -2.359375 C 6.550781 -2.441406 6.625 -2.484375 6.71875 -2.484375 C 6.769531 -2.484375 6.816406 -2.46875 6.859375 -2.4375 L 7.640625 -1.8125 C 7.710938 -1.738281 7.75 -1.671875 7.75 -1.609375 C 7.75 -1.566406 7.734375 -1.519531 7.703125 -1.46875 C 7.390625 -0.96875 6.960938 -0.578125 6.421875 -0.296875 C 5.878906 -0.015625 5.253906 0.125 4.546875 0.125 C 3.691406 0.125 2.972656 -0.078125 2.390625 -0.484375 C 1.816406 -0.890625 1.398438 -1.453125 1.140625 -2.171875 C 0.921875 -2.773438 0.8125 -3.445312 0.8125 -4.1875 C 0.8125 -4.9375 0.867188 -5.515625 0.984375 -5.921875 C 1.191406 -6.679688 1.597656 -7.289062 2.203125 -7.75 C 2.816406 -8.207031 3.554688 -8.4375 4.421875 -8.4375 C 6.441406 -8.4375 7.628906 -7.328125 7.984375 -5.109375 C 8.035156 -4.742188 8.070312 -4.296875 8.09375 -3.765625 C 8.09375 -3.597656 8.003906 -3.515625 7.828125 -3.515625 L 2.796875 -3.515625 C 2.734375 -3.515625 2.703125 -3.476562 2.703125 -3.40625 C 2.703125 -3.113281 2.734375 -2.878906 2.796875 -2.703125 C 2.910156 -2.304688 3.132812 -2 3.46875 -1.78125 C 3.8125 -1.570312 4.234375 -1.46875 4.734375 -1.46875 Z M 4.40625 -6.8125 C 3.988281 -6.8125 3.644531 -6.707031 3.375 -6.5 C 3.113281 -6.300781 2.9375 -6.023438 2.84375 -5.671875 C 2.769531 -5.453125 2.726562 -5.222656 2.71875 -4.984375 C 2.707031 -4.921875 2.734375 -4.890625 2.796875 -4.890625 L 6.0625 -4.890625 C 6.125 -4.890625 6.15625 -4.921875 6.15625 -4.984375 C 6.113281 -5.304688 6.082031 -5.503906 6.0625 -5.578125 C 5.96875 -5.953125 5.773438 -6.25 5.484375 -6.46875 C 5.191406 -6.695312 4.832031 -6.8125 4.40625 -6.8125 Z M 4.40625 -6.8125 "/></g></g></g><g fill="#f46530" fill-opacity="1"><g transform="translate(156.455381, 290.393984)"><g><path d="M 8.015625 -6.15625 C 8.191406 -5.601562 8.28125 -4.941406 8.28125 -4.171875 C 8.28125 -3.429688 8.1875 -2.753906 8 -2.140625 C 7.757812 -1.441406 7.367188 -0.890625 6.828125 -0.484375 C 6.285156 -0.078125 5.632812 0.125 4.875 0.125 C 4.101562 0.125 3.484375 -0.15625 3.015625 -0.71875 C 2.992188 -0.757812 2.96875 -0.773438 2.9375 -0.765625 C 2.914062 -0.753906 2.90625 -0.726562 2.90625 -0.6875 L 2.90625 -0.265625 C 2.90625 -0.0859375 2.820312 0 2.65625 0 L 1.28125 0 C 1.113281 0 1.03125 -0.0859375 1.03125 -0.265625 L 1.03125 -11.109375 C 1.03125 -11.285156 1.113281 -11.375 1.28125 -11.375 L 2.65625 -11.375 C 2.820312 -11.375 2.90625 -11.285156 2.90625 -11.109375 L 2.90625 -7.671875 C 2.90625 -7.628906 2.914062 -7.601562 2.9375 -7.59375 C 2.96875 -7.59375 2.992188 -7.609375 3.015625 -7.640625 C 3.492188 -8.171875 4.113281 -8.4375 4.875 -8.4375 C 5.664062 -8.4375 6.328125 -8.234375 6.859375 -7.828125 C 7.390625 -7.429688 7.773438 -6.875 8.015625 -6.15625 Z M 5.953125 -2.296875 C 6.210938 -2.742188 6.34375 -3.359375 6.34375 -4.140625 C 6.34375 -4.984375 6.179688 -5.644531 5.859375 -6.125 C 5.554688 -6.582031 5.125 -6.8125 4.5625 -6.8125 C 4.039062 -6.8125 3.632812 -6.570312 3.34375 -6.09375 C 3.070312 -5.644531 2.9375 -5 2.9375 -4.15625 C 2.9375 -3.320312 3.0625 -2.695312 3.3125 -2.28125 C 3.613281 -1.769531 4.035156 -1.515625 4.578125 -1.515625 C 5.210938 -1.515625 5.671875 -1.773438 5.953125 -2.296875 Z M 5.953125 -2.296875 "/></g></g></g><g fill="#f46530" fill-opacity="1"><g transform="translate(165.407284, 290.393984)"><g/></g></g><g fill="#f46530" fill-opacity="1"><g transform="translate(168.656617, 290.393984)"><g><path d="M 1.453125 0 C 1.273438 0 1.1875 -0.0859375 1.1875 -0.265625 L 1.1875 -11.109375 C 1.1875 -11.285156 1.273438 -11.375 1.453125 -11.375 L 5.34375 -11.375 C 6.113281 -11.375 6.789062 -11.238281 7.375 -10.96875 C 7.957031 -10.695312 8.410156 -10.304688 8.734375 -9.796875 C 9.054688 -9.296875 9.21875 -8.710938 9.21875 -8.046875 L 9.21875 -3.328125 C 9.21875 -2.660156 9.054688 -2.070312 8.734375 -1.5625 C 8.410156 -1.0625 7.957031 -0.675781 7.375 -0.40625 C 6.789062 -0.132812 6.113281 0 5.34375 0 Z M 3.078125 -1.71875 C 3.078125 -1.65625 3.109375 -1.625 3.171875 -1.625 L 5.421875 -1.625 C 5.992188 -1.625 6.453125 -1.804688 6.796875 -2.171875 C 7.140625 -2.535156 7.316406 -3.019531 7.328125 -3.625 L 7.328125 -7.734375 C 7.328125 -8.347656 7.148438 -8.835938 6.796875 -9.203125 C 6.453125 -9.566406 5.988281 -9.75 5.40625 -9.75 L 3.171875 -9.75 C 3.109375 -9.75 3.078125 -9.71875 3.078125 -9.65625 Z M 3.078125 -1.71875 "/></g></g></g><g fill="#f46530" fill-opacity="1"><g transform="translate(178.697049, 290.393984)"><g><path d="M 4.734375 -1.46875 C 5.128906 -1.476562 5.472656 -1.5625 5.765625 -1.71875 C 6.066406 -1.875 6.3125 -2.085938 6.5 -2.359375 C 6.550781 -2.441406 6.625 -2.484375 6.71875 -2.484375 C 6.769531 -2.484375 6.816406 -2.46875 6.859375 -2.4375 L 7.640625 -1.8125 C 7.710938 -1.738281 7.75 -1.671875 7.75 -1.609375 C 7.75 -1.566406 7.734375 -1.519531 7.703125 -1.46875 C 7.390625 -0.96875 6.960938 -0.578125 6.421875 -0.296875 C 5.878906 -0.015625 5.253906 0.125 4.546875 0.125 C 3.691406 0.125 2.972656 -0.078125 2.390625 -0.484375 C 1.816406 -0.890625 1.398438 -1.453125 1.140625 -2.171875 C 0.921875 -2.773438 0.8125 -3.445312 0.8125 -4.1875 C 0.8125 -4.9375 0.867188 -5.515625 0.984375 -5.921875 C 1.191406 -6.679688 1.597656 -7.289062 2.203125 -7.75 C 2.816406 -8.207031 3.554688 -8.4375 4.421875 -8.4375 C 6.441406 -8.4375 7.628906 -7.328125 7.984375 -5.109375 C 8.035156 -4.742188 8.070312 -4.296875 8.09375 -3.765625 C 8.09375 -3.597656 8.003906 -3.515625 7.828125 -3.515625 L 2.796875 -3.515625 C 2.734375 -3.515625 2.703125 -3.476562 2.703125 -3.40625 C 2.703125 -3.113281 2.734375 -2.878906 2.796875 -2.703125 C 2.910156 -2.304688 3.132812 -2 3.46875 -1.78125 C 3.8125 -1.570312 4.234375 -1.46875 4.734375 -1.46875 Z M 4.40625 -6.8125 C 3.988281 -6.8125 3.644531 -6.707031 3.375 -6.5 C 3.113281 -6.300781 2.9375 -6.023438 2.84375 -5.671875 C 2.769531 -5.453125 2.726562 -5.222656 2.71875 -4.984375 C 2.707031 -4.921875 2.734375 -4.890625 2.796875 -4.890625 L 6.0625 -4.890625 C 6.125 -4.890625 6.15625 -4.921875 6.15625 -4.984375 C 6.113281 -5.304688 6.082031 -5.503906 6.0625 -5.578125 C 5.96875 -5.953125 5.773438 -6.25 5.484375 -6.46875 C 5.191406 -6.695312 4.832031 -6.8125 4.40625 -6.8125 Z M 4.40625 -6.8125 "/></g></g></g><g fill="#f46530" fill-opacity="1"><g transform="translate(187.502731, 290.393984)"><g><path d="M 3.3125 0 C 3.164062 0 3.066406 -0.0703125 3.015625 -0.21875 L 0.453125 -8.015625 C 0.441406 -8.046875 0.4375 -8.082031 0.4375 -8.125 C 0.4375 -8.238281 0.515625 -8.296875 0.671875 -8.296875 L 2.1875 -8.296875 C 2.34375 -8.296875 2.441406 -8.226562 2.484375 -8.09375 L 4.03125 -2.703125 C 4.050781 -2.648438 4.070312 -2.625 4.09375 -2.625 C 4.125 -2.625 4.144531 -2.648438 4.15625 -2.703125 L 5.703125 -8.078125 C 5.742188 -8.222656 5.84375 -8.296875 6 -8.296875 L 7.53125 -8.28125 C 7.613281 -8.28125 7.675781 -8.253906 7.71875 -8.203125 C 7.757812 -8.148438 7.765625 -8.082031 7.734375 -8 L 5.1875 -0.21875 C 5.144531 -0.0703125 5.046875 0 4.890625 0 Z M 3.3125 0 "/></g></g></g><g fill="#f46530" fill-opacity="1"><g transform="translate(195.691038, 290.393984)"><g><path d="M 4.734375 -1.46875 C 5.128906 -1.476562 5.472656 -1.5625 5.765625 -1.71875 C 6.066406 -1.875 6.3125 -2.085938 6.5 -2.359375 C 6.550781 -2.441406 6.625 -2.484375 6.71875 -2.484375 C 6.769531 -2.484375 6.816406 -2.46875 6.859375 -2.4375 L 7.640625 -1.8125 C 7.710938 -1.738281 7.75 -1.671875 7.75 -1.609375 C 7.75 -1.566406 7.734375 -1.519531 7.703125 -1.46875 C 7.390625 -0.96875 6.960938 -0.578125 6.421875 -0.296875 C 5.878906 -0.015625 5.253906 0.125 4.546875 0.125 C 3.691406 0.125 2.972656 -0.078125 2.390625 -0.484375 C 1.816406 -0.890625 1.398438 -1.453125 1.140625 -2.171875 C 0.921875 -2.773438 0.8125 -3.445312 0.8125 -4.1875 C 0.8125 -4.9375 0.867188 -5.515625 0.984375 -5.921875 C 1.191406 -6.679688 1.597656 -7.289062 2.203125 -7.75 C 2.816406 -8.207031 3.554688 -8.4375 4.421875 -8.4375 C 6.441406 -8.4375 7.628906 -7.328125 7.984375 -5.109375 C 8.035156 -4.742188 8.070312 -4.296875 8.09375 -3.765625 C 8.09375 -3.597656 8.003906 -3.515625 7.828125 -3.515625 L 2.796875 -3.515625 C 2.734375 -3.515625 2.703125 -3.476562 2.703125 -3.40625 C 2.703125 -3.113281 2.734375 -2.878906 2.796875 -2.703125 C 2.910156 -2.304688 3.132812 -2 3.46875 -1.78125 C 3.8125 -1.570312 4.234375 -1.46875 4.734375 -1.46875 Z M 4.40625 -6.8125 C 3.988281 -6.8125 3.644531 -6.707031 3.375 -6.5 C 3.113281 -6.300781 2.9375 -6.023438 2.84375 -5.671875 C 2.769531 -5.453125 2.726562 -5.222656 2.71875 -4.984375 C 2.707031 -4.921875 2.734375 -4.890625 2.796875 -4.890625 L 6.0625 -4.890625 C 6.125 -4.890625 6.15625 -4.921875 6.15625 -4.984375 C 6.113281 -5.304688 6.082031 -5.503906 6.0625 -5.578125 C 5.96875 -5.953125 5.773438 -6.25 5.484375 -6.46875 C 5.191406 -6.695312 4.832031 -6.8125 4.40625 -6.8125 Z M 4.40625 -6.8125 "/></g></g></g><g fill="#f46530" fill-opacity="1"><g transform="translate(204.496719, 290.393984)"><g><path d="M 1.28125 0 C 1.113281 0 1.03125 -0.0859375 1.03125 -0.265625 L 1.03125 -11.109375 C 1.03125 -11.285156 1.113281 -11.375 1.28125 -11.375 L 2.65625 -11.375 C 2.820312 -11.375 2.90625 -11.285156 2.90625 -11.109375 L 2.90625 -0.265625 C 2.90625 -0.0859375 2.820312 0 2.65625 0 Z M 1.28125 0 "/></g></g></g><g fill="#f46530" fill-opacity="1"><g transform="translate(208.444652, 290.393984)"><g><path d="M 4.546875 0.125 C 3.691406 0.125 2.953125 -0.0859375 2.328125 -0.515625 C 1.710938 -0.953125 1.289062 -1.554688 1.0625 -2.328125 C 0.875 -2.859375 0.78125 -3.472656 0.78125 -4.171875 C 0.78125 -4.867188 0.867188 -5.488281 1.046875 -6.03125 C 1.285156 -6.789062 1.710938 -7.378906 2.328125 -7.796875 C 2.953125 -8.222656 3.695312 -8.4375 4.5625 -8.4375 C 5.382812 -8.4375 6.097656 -8.222656 6.703125 -7.796875 C 7.304688 -7.378906 7.734375 -6.796875 7.984375 -6.046875 C 8.171875 -5.523438 8.265625 -4.90625 8.265625 -4.1875 C 8.265625 -3.507812 8.175781 -2.894531 8 -2.34375 C 7.75 -1.570312 7.316406 -0.96875 6.703125 -0.53125 C 6.097656 -0.09375 5.378906 0.125 4.546875 0.125 Z M 4.546875 -1.5 C 4.953125 -1.5 5.296875 -1.609375 5.578125 -1.828125 C 5.867188 -2.054688 6.070312 -2.378906 6.1875 -2.796875 C 6.3125 -3.140625 6.375 -3.59375 6.375 -4.15625 C 6.375 -4.6875 6.316406 -5.144531 6.203125 -5.53125 C 6.085938 -5.9375 5.878906 -6.25 5.578125 -6.46875 C 5.285156 -6.695312 4.929688 -6.8125 4.515625 -6.8125 C 4.109375 -6.8125 3.753906 -6.695312 3.453125 -6.46875 C 3.160156 -6.25 2.957031 -5.9375 2.84375 -5.53125 C 2.738281 -5.144531 2.6875 -4.6875 2.6875 -4.15625 C 2.6875 -3.625 2.738281 -3.171875 2.84375 -2.796875 C 2.957031 -2.378906 3.164062 -2.054688 3.46875 -1.828125 C 3.769531 -1.609375 4.128906 -1.5 4.546875 -1.5 Z M 4.546875 -1.5 "/></g></g></g><g fill="#f46530" fill-opacity="1"><g transform="translate(217.494033, 290.393984)"><g><path d="M 8.0625 -6.15625 C 8.257812 -5.5625 8.359375 -4.882812 8.359375 -4.125 C 8.359375 -3.351562 8.265625 -2.691406 8.078125 -2.140625 C 7.835938 -1.429688 7.453125 -0.875 6.921875 -0.46875 C 6.390625 -0.0703125 5.726562 0.125 4.9375 0.125 C 4.175781 0.125 3.5625 -0.140625 3.09375 -0.671875 C 3.070312 -0.703125 3.046875 -0.710938 3.015625 -0.703125 C 2.984375 -0.703125 2.96875 -0.679688 2.96875 -0.640625 L 2.96875 2.8125 C 2.96875 2.988281 2.882812 3.078125 2.71875 3.078125 L 1.34375 3.078125 C 1.175781 3.078125 1.09375 2.988281 1.09375 2.8125 L 1.09375 -8.046875 C 1.09375 -8.210938 1.175781 -8.296875 1.34375 -8.296875 L 2.71875 -8.296875 C 2.882812 -8.296875 2.96875 -8.210938 2.96875 -8.046875 L 2.96875 -7.625 C 2.96875 -7.582031 2.984375 -7.554688 3.015625 -7.546875 C 3.046875 -7.535156 3.070312 -7.550781 3.09375 -7.59375 C 3.550781 -8.15625 4.164062 -8.4375 4.9375 -8.4375 C 5.695312 -8.4375 6.347656 -8.234375 6.890625 -7.828125 C 7.429688 -7.421875 7.820312 -6.863281 8.0625 -6.15625 Z M 5.9375 -2.171875 C 6.25 -2.648438 6.40625 -3.3125 6.40625 -4.15625 C 6.40625 -4.9375 6.273438 -5.554688 6.015625 -6.015625 C 5.734375 -6.535156 5.273438 -6.796875 4.640625 -6.796875 C 4.097656 -6.796875 3.675781 -6.539062 3.375 -6.03125 C 3.125 -5.601562 3 -4.972656 3 -4.140625 C 3 -3.296875 3.132812 -2.648438 3.40625 -2.203125 C 3.695312 -1.734375 4.101562 -1.5 4.625 -1.5 C 5.1875 -1.5 5.625 -1.722656 5.9375 -2.171875 Z M 5.9375 -2.171875 "/></g></g></g><g fill="#f46530" fill-opacity="1"><g transform="translate(226.510924, 290.393984)"><g><path d="M 4.734375 -1.46875 C 5.128906 -1.476562 5.472656 -1.5625 5.765625 -1.71875 C 6.066406 -1.875 6.3125 -2.085938 6.5 -2.359375 C 6.550781 -2.441406 6.625 -2.484375 6.71875 -2.484375 C 6.769531 -2.484375 6.816406 -2.46875 6.859375 -2.4375 L 7.640625 -1.8125 C 7.710938 -1.738281 7.75 -1.671875 7.75 -1.609375 C 7.75 -1.566406 7.734375 -1.519531 7.703125 -1.46875 C 7.390625 -0.96875 6.960938 -0.578125 6.421875 -0.296875 C 5.878906 -0.015625 5.253906 0.125 4.546875 0.125 C 3.691406 0.125 2.972656 -0.078125 2.390625 -0.484375 C 1.816406 -0.890625 1.398438 -1.453125 1.140625 -2.171875 C 0.921875 -2.773438 0.8125 -3.445312 0.8125 -4.1875 C 0.8125 -4.9375 0.867188 -5.515625 0.984375 -5.921875 C 1.191406 -6.679688 1.597656 -7.289062 2.203125 -7.75 C 2.816406 -8.207031 3.554688 -8.4375 4.421875 -8.4375 C 6.441406 -8.4375 7.628906 -7.328125 7.984375 -5.109375 C 8.035156 -4.742188 8.070312 -4.296875 8.09375 -3.765625 C 8.09375 -3.597656 8.003906 -3.515625 7.828125 -3.515625 L 2.796875 -3.515625 C 2.734375 -3.515625 2.703125 -3.476562 2.703125 -3.40625 C 2.703125 -3.113281 2.734375 -2.878906 2.796875 -2.703125 C 2.910156 -2.304688 3.132812 -2 3.46875 -1.78125 C 3.8125 -1.570312 4.234375 -1.46875 4.734375 -1.46875 Z M 4.40625 -6.8125 C 3.988281 -6.8125 3.644531 -6.707031 3.375 -6.5 C 3.113281 -6.300781 2.9375 -6.023438 2.84375 -5.671875 C 2.769531 -5.453125 2.726562 -5.222656 2.71875 -4.984375 C 2.707031 -4.921875 2.734375 -4.890625 2.796875 -4.890625 L 6.0625 -4.890625 C 6.125 -4.890625 6.15625 -4.921875 6.15625 -4.984375 C 6.113281 -5.304688 6.082031 -5.503906 6.0625 -5.578125 C 5.96875 -5.953125 5.773438 -6.25 5.484375 -6.46875 C 5.191406 -6.695312 4.832031 -6.8125 4.40625 -6.8125 Z M 4.40625 -6.8125 "/></g></g></g><g fill="#f46530" fill-opacity="1"><g transform="translate(235.316606, 290.393984)"><g><path d="M 4.875 -8.40625 C 5.1875 -8.40625 5.472656 -8.34375 5.734375 -8.21875 C 5.867188 -8.15625 5.914062 -8.046875 5.875 -7.890625 L 5.625 -6.546875 C 5.613281 -6.460938 5.582031 -6.410156 5.53125 -6.390625 C 5.476562 -6.367188 5.40625 -6.367188 5.3125 -6.390625 C 5.1875 -6.429688 5.015625 -6.453125 4.796875 -6.453125 C 4.660156 -6.453125 4.554688 -6.445312 4.484375 -6.4375 C 4.023438 -6.414062 3.644531 -6.253906 3.34375 -5.953125 C 3.039062 -5.660156 2.890625 -5.273438 2.890625 -4.796875 L 2.890625 -0.265625 C 2.890625 -0.0859375 2.800781 0 2.625 0 L 1.265625 0 C 1.085938 0 1 -0.0859375 1 -0.265625 L 1 -8.046875 C 1 -8.210938 1.085938 -8.296875 1.265625 -8.296875 L 2.625 -8.296875 C 2.800781 -8.296875 2.890625 -8.210938 2.890625 -8.046875 L 2.890625 -7.40625 C 2.890625 -7.363281 2.898438 -7.335938 2.921875 -7.328125 C 2.941406 -7.316406 2.960938 -7.332031 2.984375 -7.375 C 3.441406 -8.0625 4.070312 -8.40625 4.875 -8.40625 Z M 4.875 -8.40625 "/></g></g></g></svg>